Coordinates
version=1
nRows=11
nColumns=63
inDegrees=yes

Units are S.I. units (second, meters, Newtons, ...)
If the header above contains a line with 'inDegrees', this indicates whether rotational values are in degrees (yes) or radians (no).

endheader
time	pelvis_tilt	pelvis_list	pelvis_rotation	pelvis_tx	pelvis_ty	pelvis_tz	hip_flexion_r	hip_adduction_r	hip_rotation_r	knee_angle_r	knee_angle_r_beta	ankle_angle_r	subtalar_angle_r	mtp_angle_r	hip_flexion_l	hip_adduction_l	hip_rotation_l	knee_angle_l	knee_angle_l_beta	ankle_angle_l	subtalar_angle_l	mtp_angle_l	L5_S1_Flex_Ext	L5_S1_Lat_Bending	L5_S1_axial_rotation	L4_L5_Flex_Ext	L4_L5_Lat_Bending	L4_L5_axial_rotation	L3_L4_Flex_Ext	L3_L4_Lat_Bending	L3_L4_axial_rotation	L2_L3_Flex_Ext	L2_L3_Lat_Bending	L2_L3_axial_rotation	L1_L2_Flex_Ext	L1_L2_Lat_Bending	L1_L2_axial_rotation	L1_T12_Flex_Ext	L1_T12_Lat_Bending	L1_T12_axial_rotation	Abs_r3	Abs_r2	Abs_r1	Abs_t1	Abs_t2	neck_flexion	neck_bending	neck_rotation	arm_flex_r	arm_add_r	arm_rot_r	elbow_flex_r	pro_sup_r	wrist_flex_r	wrist_dev_r	arm_flex_l	arm_add_l	arm_rot_l	elbow_flex_l	pro_sup_l	wrist_flex_l	wrist_dev_l
      0.61666667	      0.32159178	     -3.10793885	     87.25123878	      0.32409547	      1.03051889	      0.44411894	      2.75798628	     -5.84942839	     -3.26179639	      9.31112831	      0.16250985	     29.23943301	     10.19516194	      0.00000000	      2.16837201	      4.62147240	     -0.01241676	      6.38761363	      0.11148489	     23.22833328	    -12.55105790	      0.00000000	      0.13988930	     -0.44360410	      0.15474710	      0.25978842	     -0.58999346	      0.16441879	      0.22982413	     -1.07857901	      0.16441879	      0.15987948	     -1.07857901	      0.13540371	      0.12990120	     -0.90459748	      0.12573202	      0.07993275	     -0.68714275	      0.11606032	      0.99921527	     -5.01813832	      0.86065694	      0.00000000	      0.00000000	     27.72374949	      8.36301475	     -0.29398498	     12.25602005	    -11.83698223	     36.49839310	     87.44957277	     86.74887505	     13.21084414	     16.93691506	     12.23651567	    -13.06461996	     78.42377523	     19.55531343	     57.52768211	    -14.30639791	     -8.36163792
      0.63333333	      0.13269220	     -2.89551603	     86.87488900	      0.32512604	      1.03158984	      0.44413483	      2.63442529	     -5.97401882	     -2.29991018	      9.22686428	      0.16103916	     29.10994608	      9.80722943	      0.00000000	      1.93667039	      4.77823558	     -0.42920039	      6.38536480	      0.11144564	     22.98926952	    -12.39363089	      0.00000000	      0.10884525	     -0.47857713	      0.19485675	      0.20213651	     -0.63650758	      0.20703529	      0.17882186	     -1.16361244	      0.20703529	      0.12439923	     -1.16361244	      0.17049965	      0.10107370	     -0.97591449	      0.15832111	      0.06219417	     -0.74131598	      0.14614256	      0.77747071	     -5.41376022	      1.08373477	      0.00000000	      0.00000000	     27.70105155	      8.47389164	     -1.18600516	     13.91682821	    -11.24588531	     35.35372291	     92.04892838	     87.71918507	      7.68743849	     14.08085477	     11.61504175	    -13.78588637	     76.18935628	     19.22544813	     55.23015300	    -10.87152038	     -5.86135928
      0.65000000	     -0.00073687	     -2.80009987	     86.71147066	      0.32601435	      1.03258872	      0.44418316	      2.53989335	     -6.03801252	     -1.79639728	      8.98571743	      0.15683035	     29.07278448	      9.85494901	      0.00000000	      1.79130897	      4.87989145	     -0.55968400	      6.30033774	      0.10996164	     22.65389516	    -12.31950810	      0.00000000	      0.09836430	     -0.50950225	      0.24346446	      0.18267234	     -0.67763800	      0.25868099	      0.16160271	     -1.23880378	      0.25868099	      0.11242056	     -1.23880378	      0.21303140	      0.09134109	     -1.03897699	      0.19781488	      0.05620536	     -0.78921899	      0.18259835	      0.70260635	     -5.76359138	      1.35407630	      0.00000000	      0.00000000	     27.68227993	      8.59066622	     -2.33398606	     16.08211737	    -10.47970698	     33.71878875	     95.83984380	     88.38177800	      3.23470849	     12.27321619	     11.48716578	    -14.53760736	     77.11852592	     19.10418679	     56.15554356	    -10.36969974	     -3.06108962
      0.66666667	     -0.09081348	     -2.63403677	     86.62929609	      0.32680069	      1.03384644	      0.44454294	      2.38612798	     -6.06890384	     -1.49280003	      8.73661049	      0.15248262	     29.20009168	     10.18991497	      0.00000000	      1.60920942	      4.94222578	     -0.58692692	      6.26153569	      0.10928441	     22.24870240	    -12.27915614	      0.00000000	      0.07163536	     -0.54063607	      0.28949861	      0.13303403	     -0.71904597	      0.30759227	      0.11768974	     -1.31450253	      0.30759227	      0.08187206	     -1.31450253	      0.25331128	      0.06652060	     -1.10246507	      0.23521762	      0.04093245	     -0.83744527	      0.21712396	      0.51168423	     -6.11578332	      1.61010442	      0.00000000	      0.00000000	     27.72322934	      8.56863004	     -3.99787617	     19.01560946	    -10.14211975	     32.52158905	     99.11037929	     88.62936967	     -1.36445922	     10.78411183	     11.76187106	    -15.07562280	     80.61069438	     18.54239281	     60.27370469	    -10.91922680	     -0.66544607
      0.68333333	     -0.07447911	     -2.59274104	     86.60450004	      0.32734865	      1.03503870	      0.44503574	      2.39215079	     -6.00425468	     -1.56789970	      8.54056189	      0.14906092	     29.46811516	     10.93781960	      0.00000000	      1.59785389	      4.89611870	     -0.56666511	      6.28596987	      0.10971087	     21.90263339	    -12.29596506	      0.00000000	      0.06039679	     -0.56108200	      0.34468944	      0.11216287	     -0.74623906	      0.36623253	      0.09922588	     -1.36421477	      0.36623253	      0.06902749	     -1.36421477	      0.30160326	      0.05608446	     -1.14415841	      0.28006017	      0.03451072	     -0.86911601	      0.25851708	      0.43140821	     -6.34707176	      1.91705927	      0.00000000	      0.00000000	     27.79854045	      8.23742308	     -6.22593720	     22.15332616	    -10.52203472	     31.45337634	    102.56471992	     88.74967458	     -5.05889460	      9.91494098	     12.16727155	    -15.12087893	     86.30428098	     17.16764267	     67.29310217	    -11.84922503	      0.49835103
      0.70000000	     -0.07247296	     -2.62989655	     86.65507266	      0.32796391	      1.03619637	      0.44563458	      2.47748151	     -5.96634691	     -2.09584720	      8.34697153	      0.14568214	     29.88773811	     12.17678267	      0.00000000	      1.69023568	      4.84340787	     -0.51358751	      6.32945115	      0.11046976	     21.50818307	    -12.23429731	      0.00000000	      0.05365207	     -0.58967588	      0.38768334	      0.09963726	     -0.78426893	      0.41191355	      0.08814499	     -1.43373794	      0.41191355	      0.06131895	     -1.43373794	      0.33922292	      0.04982131	     -1.20246706	      0.31499272	      0.03065679	     -0.91340794	      0.29076251	      0.38323138	     -6.67053153	      2.15617844	      0.00000000	      0.00000000	     27.90812207	      7.92296172	     -8.79155582	     25.01198295	    -11.20450313	     30.12589458	    106.49445597	     88.80557243	     -7.28741222	     10.03983819	     12.02235696	    -15.17112812	     90.45433528	     15.86842950	     71.46835927	    -12.39031785	      0.58803990
      0.71666667	     -0.15011010	     -2.77340370	     87.00246117	      0.32844682	      1.03715412	      0.44597090	      2.57120945	     -5.97435828	     -2.55899766	      8.11051898	      0.14155526	     30.25176864	     12.82889681	      0.00000000	      1.91293655	      4.85916978	     -0.37051851	      6.42578731	      0.11215115	     21.20655425	    -12.02034465	      0.00000000	      0.05666929	     -0.63564768	      0.36256189	      0.10524054	     -0.84541141	      0.38522201	      0.09310198	     -1.54551377	      0.38522201	      0.06476734	     -1.54551377	      0.31724166	      0.05262311	     -1.29621275	      0.29458154	      0.03238083	     -0.98461826	      0.27192142	      0.40478310	     -7.19057368	      2.01646047	      0.00000000	      0.00000000	     28.03106000	      7.43087544	    -11.94753596	     27.16687559	    -11.73231481	     28.45181962	    111.13860415	     88.73978882	     -9.01908606	     11.50718564	     10.98370194	    -15.79882715	     90.29633390	     15.45905532	     70.63872241	    -13.09430845	     -0.54178352
      0.73333333	     -0.29938325	     -3.06741427	     87.47898804	      0.32913370	      1.03785267	      0.44636376	      2.80166706	     -6.03601404	     -3.19759670	      7.90616709	      0.13798865	     30.63957121	     13.38380990	      0.00000000	      2.32870576	      4.91867819	     -0.20806178	      6.56476537	      0.11457677	     20.94107365	    -11.73309313	      0.00000000	      0.07247964	     -0.70199368	      0.32250259	      0.13460194	     -0.93365160	      0.34265900	      0.11907680	     -1.70682744	      0.34265900	      0.08283698	     -1.70682744	      0.28218976	      0.06730459	     -1.43150551	      0.26203335	      0.04141487	     -1.08738821	      0.24187694	      0.51771482	     -7.94109292	      1.79366264	      0.00000000	      0.00000000	     28.13758571	      7.07598708	    -15.68775202	     28.49851808	    -11.73981709	     26.22330515	    116.22513803	     88.45049078	    -10.68431806	     14.02466990	      9.59532188	    -16.75640825	     87.69494243	     15.51061133	     67.39293115	    -14.04604965	     -2.58207884
      0.75000000	     -0.59959241	     -3.38219209	     87.99493477	      0.32981328	      1.03829326	      0.44695673	      3.09762100	     -6.28969324	     -4.07611767	      7.83624795	      0.13676833	     30.97988370	     14.04671158	      0.00000000	      2.80206156	      5.13301885	     -0.09965921	      6.74116714	      0.11765556	     20.67426238	    -11.34479343	      0.00000000	      0.08105435	     -0.78348835	      0.22579765	      0.15052603	     -1.04203951	      0.23991001	      0.13316419	     -1.90497358	      0.23991001	      0.09263701	     -1.90497358	      0.19757295	      0.07526707	     -1.59768945	      0.18346059	      0.04631445	     -1.21362346	      0.16934824	      0.57896310	     -8.86297694	      1.25581881	      0.00000000	      0.00000000	     28.20666012	      6.31942862	    -19.25103132	     29.70826371	    -11.25056123	     24.11720034	    121.28227608	     87.91537371	    -12.14743763	     17.59415139	      7.92674455	    -18.05007251	     83.08703978	     16.26464255	     62.22885196	    -14.50630134	     -5.17066691
      0.76666667	     -0.90470668	     -3.65029307	     88.51362293	      0.33049538	      1.03866023	      0.44768865	      3.34074833	     -6.56294654	     -4.92090974	      7.81425060	      0.13638440	     31.17995041	     14.52613737	      0.00000000	      3.22766087	      5.35656065	      0.01740197	      6.91354386	      0.12066410	     20.48904085	    -10.92632384	      0.00000000	      0.08486849	     -0.86558174	      0.09508333	      0.15760928	     -1.15122372	      0.10102604	      0.13943045	     -2.10457545	      0.10102604	      0.09699620	     -2.10457545	      0.08319791	      0.07880888	     -1.76509429	      0.07725521	      0.04849386	     -1.34078612	      0.07131250	      0.60620716	     -9.79163380	      0.52882495	      0.00000000	      0.00000000	     28.25725385	      6.15434938	    -22.31434209	     30.81861395	    -10.42454092	     22.21254342	    125.72479045	     87.28662624	    -13.25653067	     20.18211624	      6.40280515	    -19.09578349	     78.98704365	     16.73035665	     58.06441328	    -14.51163225	     -7.55916386
      0.78333333	     -1.16179225	     -3.86298237	     89.00525376	      0.33103084	      1.03892404	      0.44833570	      3.50094724	     -6.80365026	     -5.58993128	      7.84112807	      0.13685350	     31.21232043	     14.74046142	      0.00000000	      3.58146634	      5.55566352	      0.11448195	      7.07964694	      0.12356315	     20.33239366	    -10.53754942	      0.00000000	      0.09096994	     -0.93526436	     -0.04129908	      0.16894027	     -1.24390160	     -0.04388027	      0.14945451	     -2.27400177	     -0.04388027	      0.10396954	     -2.27400177	     -0.03613669	      0.08447468	     -1.90719109	     -0.03355550	      0.05198022	     -1.44872450	     -0.03097431	      0.64978916	    -10.57989751	     -0.22969309	      0.00000000	      0.00000000	     28.28827909	      5.89842134	    -25.13407814	     31.94949324	     -9.67804160	     20.69467680	    129.41961624	     86.91675176	    -13.88020647	     21.38315546	      5.15407013	    -19.89101786	     75.90793784	     16.98987226	     55.02042486	    -14.26519158	     -9.49912177
